<?xml version="1.0" encoding="UTF-8"?>
<svg xmlns="http://www.w3.org/2000/svg" xmlns:xlink="http://www.w3.org/1999/xlink" width="60px" height="60px" viewBox="0 0 60 60" version="1.1">
<g id="surface1">
<path style=" stroke:none;fill-rule:nonzero;fill:#ffffff;fill-opacity:1;" d="M 0.457031 6.433594 C 1.230469 4.792969 2.871094 3.75 4.6875 3.75 L 55.3125 3.75 C 57.128906 3.75 58.769531 4.792969 59.542969 6.433594 C 60.316406 8.074219 60.082031 10.007812 58.933594 11.414062 L 37.5 37.605469 L 37.5 52.5 C 37.5 53.917969 36.703125 55.21875 35.425781 55.851562 C 34.148438 56.484375 32.636719 56.355469 31.5 55.5 L 24 49.875 C 23.050781 49.171875 22.5 48.058594 22.5 46.875 L 22.5 37.605469 L 1.054688 11.402344 C -0.0820312 10.007812 -0.328125 8.0625 0.457031 6.433594 Z M 0.457031 6.433594 "/>
</g>
</svg>
