<svg xmlns="http://www.w3.org/2000/svg" xmlns:xlink="http://www.w3.org/1999/xlink" width="14px" height="16px" viewBox="0 0 14 16" version="1.1">
<g>
<path d="M 3.132812 13.601562 L 0.230469 13.601562 L 0.230469 4.875 L 3.132812 4.875 Z M 1.683594 3.6875 C 0.753906 3.6875 0 2.964844 0 2.105469 C 0 1.238281 0.753906 0.535156 1.683594 0.535156 C 2.609375 0.535156 3.359375 1.238281 3.359375 2.105469 C 3.359375 2.964844 2.609375 3.6875 1.683594 3.6875 Z M 13.996094 13.601562 L 11.101562 13.601562 L 11.101562 9.355469 C 11.101562 8.339844 11.082031 7.042969 9.589844 7.042969 C 8.082031 7.042969 7.851562 8.140625 7.851562 9.277344 L 7.851562 13.601562 L 4.953125 13.601562 L 4.953125 4.875 L 7.734375 4.875 L 7.734375 6.066406 L 7.777344 6.066406 C 8.164062 5.378906 9.113281 4.660156 10.519531 4.660156 C 13.460938 4.660156 14 6.460938 14 8.808594 L 14 13.601562 Z M 13.996094 13.601562 "/>
</g>
</svg>
