<svg xmlns="http://www.w3.org/2000/svg" xmlns:xlink="http://www.w3.org/1999/xlink" width="15px" height="15px" viewBox="0 0 15 15" version="1.1">
<g>
<path d="M 13.460938 4.445312 C 13.46875 4.578125 13.46875 4.710938 13.46875 4.847656 C 13.46875 8.910156 10.375 13.589844 4.722656 13.589844 C 2.980469 13.589844 1.359375 13.085938 0 12.210938 C 0.246094 12.242188 0.484375 12.25 0.742188 12.25 C 2.179688 12.25 3.503906 11.765625 4.558594 10.9375 C 3.207031 10.90625 2.074219 10.023438 1.6875 8.804688 C 1.875 8.832031 2.0625 8.851562 2.265625 8.851562 C 2.539062 8.851562 2.816406 8.8125 3.078125 8.746094 C 1.664062 8.460938 0.609375 7.222656 0.609375 5.730469 L 0.609375 5.691406 C 1.015625 5.921875 1.492188 6.0625 2 6.082031 C 1.171875 5.527344 0.628906 4.585938 0.628906 3.519531 C 0.628906 2.949219 0.777344 2.425781 1.046875 1.972656 C 2.5625 3.832031 4.835938 5.054688 7.386719 5.1875 C 7.335938 4.960938 7.3125 4.722656 7.3125 4.484375 C 7.3125 2.789062 8.679688 1.410156 10.382812 1.410156 C 11.269531 1.410156 12.070312 1.777344 12.632812 2.382812 C 13.324219 2.246094 13.992188 1.988281 14.582031 1.636719 C 14.351562 2.351562 13.867188 2.949219 13.230469 3.332031 C 13.847656 3.265625 14.449219 3.09375 15 2.855469 C 14.582031 3.464844 14.058594 4.003906 13.460938 4.445312 Z M 13.460938 4.445312 "/>
</g>
</svg>
