<svg 
 xmlns="http://www.w3.org/2000/svg"
 xmlns:xlink="http://www.w3.org/1999/xlink"
 width="1627px" height="369px">
<defs>
<filter filterUnits="userSpaceOnUse" id="Filter_0" x="1561px" y="303px" width="66px" height="66px"  >
    <feOffset in="SourceAlpha" dx="0" dy="3" />
    <feGaussianBlur result="blurOut" stdDeviation="3.162" />
    <feFlood flood-color="rgb(254, 62, 87)" result="floodOut" />
    <feComposite operator="atop" in="floodOut" in2="blurOut" />
    <feComponentTransfer><feFuncA type="linear" slope="0.5"/></feComponentTransfer>
    <feMerge>
    <feMergeNode/>
    <feMergeNode in="SourceGraphic"/>
  </feMerge>
</filter>

</defs>
<g filter="url(#Filter_0)">
<path fill-rule="evenodd"  fill="rgb(254, 62, 87)"
 d="M1593.498,355.997 C1580.519,355.997 1569.997,345.474 1569.997,332.497 C1569.997,319.518 1580.519,308.999 1593.498,308.999 C1606.477,308.999 1617.1,319.518 1617.1,332.497 C1617.1,345.474 1606.477,355.997 1593.498,355.997 ZM1593.498,313.801 C1583.173,313.801 1574.799,322.170 1574.799,332.497 C1574.799,342.825 1583.173,351.194 1593.498,351.194 C1603.828,351.194 1612.198,342.825 1612.198,332.497 C1612.198,322.170 1603.828,313.801 1593.498,313.801 ZM1593.480,338.103 C1590.383,338.93 1587.885,335.576 1587.893,332.479 C1587.904,329.383 1590.418,326.884 1593.516,326.894 C1596.612,326.902 1599.115,329.419 1599.105,332.516 C1599.96,335.610 1596.577,338.113 1593.480,338.103 Z"/>
</g>
<path fill-rule="evenodd"  fill="rgb(52, 195, 255)"
 d="M103.8,54.656 C101.813,54.656 100.846,53.690 100.846,52.498 C100.846,51.306 101.813,50.341 103.8,50.341 C104.199,50.341 105.168,51.306 105.168,52.498 C105.168,53.690 104.199,54.656 103.8,54.656 ZM95.805,61.847 C94.611,61.847 93.643,60.881 93.643,59.690 C93.643,58.498 94.611,57.532 95.805,57.532 C96.998,57.532 97.964,58.498 97.964,59.690 C97.964,60.881 96.998,61.847 95.805,61.847 ZM95.805,47.464 C94.611,47.464 93.643,46.498 93.643,45.305 C93.643,44.115 94.611,43.148 95.805,43.148 C96.998,43.148 97.964,44.115 97.964,45.305 C97.964,46.498 96.998,47.464 95.805,47.464 ZM88.601,69.39 C87.407,69.39 86.440,68.74 86.440,66.882 C86.440,65.690 87.407,64.724 88.601,64.724 C89.793,64.724 90.762,65.690 90.762,66.882 C90.762,68.74 89.793,69.39 88.601,69.39 ZM90.761,52.498 C90.761,53.690 89.793,54.656 88.600,54.656 C87.407,54.656 86.440,53.690 86.440,52.498 C86.440,51.306 87.407,50.341 88.600,50.341 C89.793,50.341 90.761,51.306 90.761,52.498 ZM88.601,40.271 C87.407,40.271 86.440,39.306 86.440,38.115 C86.440,36.923 87.407,35.957 88.601,35.957 C89.793,35.957 90.762,36.923 90.762,38.115 C90.762,39.306 89.793,40.271 88.601,40.271 ZM81.397,76.231 C80.203,76.231 79.236,75.265 79.236,74.73 C79.236,72.882 80.203,71.915 81.397,71.915 C82.590,71.915 83.558,72.882 83.558,74.73 C83.558,75.265 82.590,76.231 81.397,76.231 ZM81.397,61.847 C80.203,61.847 79.236,60.881 79.236,59.690 C79.236,58.498 80.203,57.532 81.397,57.532 C82.590,57.532 83.558,58.498 83.558,59.690 C83.558,60.881 82.590,61.847 81.397,61.847 ZM81.397,47.464 C80.203,47.464 79.236,46.498 79.236,45.305 C79.236,44.115 80.203,43.148 81.397,43.148 C82.590,43.148 83.558,44.115 83.558,45.305 C83.558,46.498 82.590,47.464 81.397,47.464 ZM81.397,33.80 C80.203,33.80 79.236,32.113 79.236,30.923 C79.236,29.730 80.203,28.765 81.397,28.765 C82.590,28.765 83.558,29.730 83.558,30.923 C83.558,32.113 82.590,33.80 81.397,33.80 ZM74.194,83.424 C73.1,83.424 72.34,82.457 72.34,81.266 C72.34,80.74 73.1,79.107 74.194,79.107 C75.387,79.107 76.354,80.74 76.354,81.266 C76.354,82.457 75.387,83.424 74.194,83.424 ZM74.194,69.39 C73.1,69.39 72.34,68.74 72.34,66.882 C72.34,65.690 73.1,64.724 74.194,64.724 C75.387,64.724 76.354,65.690 76.354,66.882 C76.354,68.74 75.387,69.39 74.194,69.39 ZM74.194,54.656 C73.1,54.656 72.34,53.690 72.34,52.498 C72.34,51.306 73.1,50.341 74.194,50.341 C75.387,50.341 76.354,51.306 76.354,52.498 C76.354,53.690 75.387,54.656 74.194,54.656 ZM74.194,40.271 C73.1,40.271 72.34,39.306 72.34,38.115 C72.34,36.923 73.1,35.957 74.194,35.957 C75.387,35.957 76.354,36.923 76.354,38.115 C76.354,39.306 75.387,40.271 74.194,40.271 ZM74.194,25.888 C73.1,25.888 72.34,24.922 72.34,23.731 C72.34,22.538 73.1,21.573 74.194,21.573 C75.387,21.573 76.354,22.538 76.354,23.731 C76.354,24.922 75.387,25.888 74.194,25.888 ZM66.991,90.615 C65.796,90.615 64.829,89.649 64.829,88.457 C64.829,87.266 65.796,86.300 66.991,86.300 C68.184,86.300 69.151,87.266 69.151,88.457 C69.151,89.649 68.184,90.615 66.991,90.615 ZM66.991,76.231 C65.796,76.231 64.829,75.265 64.829,74.73 C64.829,72.882 65.796,71.915 66.991,71.915 C68.184,71.915 69.151,72.882 69.151,74.73 C69.151,75.265 68.184,76.231 66.991,76.231 ZM66.991,61.847 C65.796,61.847 64.829,60.881 64.829,59.690 C64.829,58.498 65.796,57.532 66.991,57.532 C68.184,57.532 69.151,58.498 69.151,59.690 C69.151,60.881 68.184,61.847 66.991,61.847 ZM66.991,47.464 C65.796,47.464 64.829,46.498 64.829,45.305 C64.829,44.115 65.796,43.148 66.991,43.148 C68.184,43.148 69.151,44.115 69.151,45.305 C69.151,46.498 68.184,47.464 66.991,47.464 ZM66.991,33.80 C65.796,33.80 64.829,32.113 64.829,30.923 C64.829,29.730 65.796,28.765 66.991,28.765 C68.184,28.765 69.151,29.730 69.151,30.923 C69.151,32.113 68.184,33.80 66.991,33.80 ZM66.991,18.696 C65.796,18.696 64.829,17.730 64.829,16.538 C64.829,15.347 65.796,14.380 66.991,14.380 C68.184,14.380 69.151,15.347 69.151,16.538 C69.151,17.730 68.184,18.696 66.991,18.696 ZM59.787,83.424 C58.592,83.424 57.625,82.457 57.625,81.266 C57.625,80.74 58.592,79.107 59.787,79.107 C60.980,79.107 61.948,80.74 61.948,81.266 C61.948,82.457 60.980,83.424 59.787,83.424 ZM59.787,64.724 C60.979,64.724 61.948,65.690 61.948,66.882 C61.948,68.74 60.979,69.39 59.787,69.39 C58.592,69.39 57.625,68.74 57.625,66.882 C57.625,65.690 58.592,64.724 59.787,64.724 ZM59.787,54.656 C58.592,54.656 57.625,53.690 57.625,52.498 C57.625,51.306 58.592,50.341 59.787,50.341 C60.980,50.341 61.948,51.306 61.948,52.498 C61.948,53.690 60.980,54.656 59.787,54.656 ZM59.787,35.957 C60.979,35.957 61.948,36.923 61.948,38.115 C61.948,39.306 60.979,40.271 59.787,40.271 C58.592,40.271 57.625,39.306 57.625,38.115 C57.625,36.923 58.592,35.957 59.787,35.957 ZM59.787,25.888 C58.592,25.888 57.625,24.922 57.625,23.731 C57.625,22.538 58.592,21.573 59.787,21.573 C60.980,21.573 61.948,22.538 61.948,23.731 C61.948,24.922 60.980,25.888 59.787,25.888 ZM59.787,11.504 C58.592,11.504 57.625,10.539 57.625,9.346 C57.625,8.155 58.592,7.189 59.787,7.189 C60.979,7.189 61.948,8.155 61.948,9.346 C61.948,10.539 60.979,11.504 59.787,11.504 ZM52.584,104.999 C52.584,104.999 52.584,104.999 52.583,104.999 C51.389,104.999 50.422,104.33 50.422,102.842 C50.422,101.650 51.389,100.683 52.583,100.683 C52.584,100.683 52.584,100.683 52.584,100.683 C53.777,100.683 54.745,101.650 54.745,102.842 C54.745,104.33 53.777,104.999 52.584,104.999 ZM52.583,86.300 C53.776,86.300 54.744,87.266 54.744,88.457 C54.744,89.649 53.776,90.615 52.583,90.615 C51.389,90.615 50.422,89.649 50.422,88.457 C50.422,87.266 51.389,86.300 52.583,86.300 ZM52.584,76.231 C52.584,76.231 52.584,76.231 52.583,76.231 C51.389,76.231 50.422,75.265 50.422,74.73 C50.422,72.882 51.389,71.915 52.583,71.915 C52.584,71.915 52.584,71.915 52.584,71.915 C53.777,71.915 54.745,72.882 54.745,74.73 C54.745,75.265 53.777,76.231 52.584,76.231 ZM52.583,57.532 C53.776,57.532 54.744,58.498 54.744,59.690 C54.744,60.881 53.776,61.847 52.583,61.847 C51.389,61.847 50.422,60.881 50.422,59.690 C50.422,58.498 51.389,57.532 52.583,57.532 ZM52.584,47.464 C52.584,47.464 52.584,47.464 52.583,47.464 C51.389,47.464 50.422,46.498 50.422,45.305 C50.422,44.115 51.389,43.148 52.583,43.148 C52.584,43.148 52.584,43.148 52.584,43.148 C53.777,43.148 54.745,44.115 54.745,45.305 C54.745,46.498 53.777,47.464 52.584,47.464 ZM52.583,28.765 C53.776,28.765 54.744,29.730 54.744,30.923 C54.744,32.113 53.776,33.80 52.583,33.80 C51.389,33.80 50.422,32.113 50.422,30.923 C50.422,29.730 51.389,28.765 52.583,28.765 ZM52.584,18.696 C52.584,18.696 52.584,18.696 52.583,18.696 C51.389,18.696 50.422,17.730 50.422,16.538 C50.422,15.347 51.389,14.380 52.583,14.380 C52.584,14.380 52.584,14.380 52.584,14.380 C53.777,14.380 54.745,15.347 54.745,16.538 C54.745,17.730 53.777,18.696 52.584,18.696 ZM52.583,4.312 C51.389,4.312 50.422,3.346 50.422,2.155 C50.422,0.963 51.389,0.2 52.583,0.2 C53.776,0.2 54.744,0.963 54.744,2.155 C54.744,3.346 53.776,4.312 52.583,4.312 ZM45.379,97.806 C44.186,97.806 43.219,96.840 43.219,95.649 C43.219,94.458 44.186,93.492 45.379,93.492 C46.573,93.492 47.541,94.458 47.541,95.649 C47.541,96.840 46.573,97.806 45.379,97.806 ZM45.379,83.424 C44.186,83.424 43.219,82.457 43.219,81.266 C43.219,80.74 44.186,79.107 45.379,79.107 C46.573,79.107 47.541,80.74 47.541,81.266 C47.541,82.457 46.573,83.424 45.379,83.424 ZM45.379,69.39 C44.186,69.39 43.219,68.74 43.219,66.882 C43.219,65.690 44.186,64.724 45.379,64.724 C46.573,64.724 47.541,65.690 47.541,66.882 C47.541,68.74 46.573,69.39 45.379,69.39 ZM45.379,54.656 C44.186,54.656 43.219,53.690 43.219,52.498 C43.219,51.306 44.186,50.341 45.379,50.341 C46.573,50.341 47.541,51.306 47.541,52.498 C47.541,53.690 46.573,54.656 45.379,54.656 ZM45.379,40.271 C44.186,40.271 43.219,39.306 43.219,38.115 C43.219,36.923 44.186,35.957 45.379,35.957 C46.573,35.957 47.541,36.923 47.541,38.115 C47.541,39.306 46.573,40.271 45.379,40.271 ZM45.379,25.888 C44.186,25.888 43.219,24.922 43.219,23.731 C43.219,22.538 44.186,21.573 45.379,21.573 C46.573,21.573 47.541,22.538 47.541,23.731 C47.541,24.922 46.573,25.888 45.379,25.888 ZM45.379,11.504 C44.186,11.504 43.219,10.539 43.219,9.346 C43.219,8.155 44.186,7.189 45.379,7.189 C46.573,7.189 47.541,8.155 47.541,9.346 C47.541,10.539 46.573,11.504 45.379,11.504 ZM38.178,90.615 C38.177,90.615 38.177,90.615 38.177,90.615 C37.281,90.615 36.513,90.72 36.185,89.297 C36.76,89.39 36.16,88.755 36.16,88.457 C36.16,88.159 36.76,87.876 36.185,87.618 C36.513,86.843 37.281,86.300 38.177,86.300 C38.177,86.300 38.177,86.300 38.178,86.300 C39.72,86.300 39.839,86.843 40.166,87.618 C40.277,87.876 40.337,88.159 40.337,88.457 C40.337,88.755 40.277,89.39 40.166,89.297 C39.839,90.72 39.72,90.615 38.178,90.615 ZM38.178,76.231 C38.177,76.231 38.177,76.231 38.177,76.231 C37.281,76.231 36.513,75.688 36.185,74.914 C36.76,74.655 36.16,74.372 36.16,74.73 C36.16,73.776 36.76,73.492 36.185,73.234 C36.513,72.459 37.281,71.915 38.177,71.915 C38.177,71.915 38.177,71.915 38.178,71.915 C39.72,71.915 39.839,72.459 40.166,73.234 C40.277,73.492 40.337,73.776 40.337,74.73 C40.337,74.372 40.277,74.655 40.166,74.914 C39.839,75.688 39.72,76.231 38.178,76.231 ZM38.178,61.847 C38.177,61.847 38.177,61.847 38.177,61.847 C37.281,61.847 36.513,61.305 36.185,60.530 C36.76,60.272 36.16,59.988 36.16,59.690 C36.16,59.393 36.76,59.107 36.185,58.851 C36.513,58.76 37.281,57.532 38.177,57.532 C38.177,57.532 38.177,57.532 38.178,57.532 C39.72,57.532 39.839,58.76 40.166,58.851 C40.277,59.107 40.337,59.393 40.337,59.690 C40.337,59.988 40.277,60.272 40.166,60.530 C39.839,61.305 39.72,61.847 38.178,61.847 ZM38.178,47.464 C38.177,47.464 38.177,47.464 38.177,47.464 C37.281,47.464 36.513,46.920 36.185,46.146 C36.76,45.889 36.16,45.604 36.16,45.305 C36.16,45.8 36.76,44.724 36.185,44.466 C36.513,43.692 37.281,43.148 38.177,43.148 C38.177,43.148 38.177,43.148 38.178,43.148 C39.72,43.148 39.839,43.692 40.166,44.466 C40.277,44.724 40.337,45.8 40.337,45.305 C40.337,45.604 40.277,45.889 40.166,46.146 C39.839,46.920 39.72,47.464 38.178,47.464 ZM38.178,33.80 C38.177,33.80 38.177,33.80 38.177,33.80 C37.281,33.80 36.513,32.537 36.185,31.762 C36.76,31.504 36.16,31.220 36.16,30.923 C36.16,30.623 36.76,30.341 36.185,30.83 C36.513,29.308 37.281,28.765 38.177,28.765 C38.177,28.765 38.177,28.765 38.178,28.765 C39.72,28.765 39.839,29.308 40.166,30.83 C40.277,30.341 40.337,30.623 40.337,30.923 C40.337,31.220 40.277,31.504 40.166,31.762 C39.839,32.537 39.72,33.80 38.178,33.80 ZM38.178,18.696 C38.177,18.696 38.177,18.696 38.177,18.696 C37.281,18.696 36.513,18.152 36.185,17.379 C36.76,17.119 36.16,16.837 36.16,16.538 C36.16,16.241 36.76,15.957 36.185,15.698 C36.513,14.924 37.281,14.380 38.177,14.380 C38.177,14.380 38.177,14.380 38.178,14.380 C39.72,14.380 39.839,14.924 40.166,15.698 C40.277,15.957 40.337,16.241 40.337,16.538 C40.337,16.837 40.277,17.119 40.166,17.379 C39.839,18.152 39.72,18.696 38.178,18.696 ZM31.815,83.254 C31.555,83.363 31.273,83.424 30.974,83.424 L30.973,83.424 C30.78,83.424 29.310,82.880 28.982,82.105 C28.872,81.848 28.812,81.563 28.812,81.266 C28.812,80.969 28.872,80.683 28.982,80.426 C29.310,79.651 30.78,79.107 30.973,79.107 L30.974,79.107 C31.273,79.107 31.555,79.168 31.815,79.278 C32.590,79.604 33.134,80.372 33.134,81.266 C33.134,82.160 32.590,82.927 31.815,83.254 ZM30.974,69.39 C29.779,69.39 28.812,68.74 28.812,66.882 C28.812,65.690 29.779,64.724 30.974,64.724 C32.165,64.724 33.134,65.690 33.134,66.882 C33.134,68.74 32.165,69.39 30.974,69.39 ZM31.815,54.486 C31.555,54.595 31.273,54.656 30.974,54.656 L30.973,54.656 C30.78,54.656 29.310,54.112 28.982,53.338 C28.872,53.80 28.812,52.797 28.812,52.498 C28.812,52.200 28.872,51.917 28.982,51.658 C29.310,50.883 30.78,50.341 30.973,50.341 L30.974,50.341 C31.273,50.341 31.555,50.401 31.815,50.510 C32.590,50.838 33.134,51.605 33.134,52.498 C33.134,53.391 32.590,54.158 31.815,54.486 ZM30.974,40.271 C29.779,40.271 28.812,39.306 28.812,38.115 C28.812,36.923 29.779,35.957 30.974,35.957 C32.165,35.957 33.134,36.923 33.134,38.115 C33.134,39.306 32.165,40.271 30.974,40.271 ZM31.815,25.719 C31.555,25.828 31.273,25.888 30.974,25.888 L30.973,25.888 C30.78,25.888 29.310,25.345 28.982,24.570 C28.872,24.312 28.812,24.28 28.812,23.731 C28.812,23.433 28.872,23.148 28.982,22.890 C29.310,22.116 30.78,21.573 30.973,21.573 L30.974,21.573 C31.273,21.573 31.555,21.633 31.815,21.742 C32.590,22.69 33.134,22.836 33.134,23.731 C33.134,24.625 32.590,25.391 31.815,25.719 ZM23.769,76.231 C22.576,76.231 21.609,75.265 21.609,74.73 C21.609,72.882 22.576,71.915 23.769,71.915 C24.963,71.915 25.931,72.882 25.931,74.73 C25.931,75.265 24.963,76.231 23.769,76.231 ZM23.769,61.847 C22.576,61.847 21.609,60.881 21.609,59.690 C21.609,58.498 22.576,57.532 23.769,57.532 C24.963,57.532 25.931,58.498 25.931,59.690 C25.931,60.881 24.963,61.847 23.769,61.847 ZM23.769,47.464 C22.576,47.464 21.609,46.498 21.609,45.305 C21.609,44.115 22.576,43.148 23.769,43.148 C24.963,43.148 25.931,44.115 25.931,45.305 C25.931,46.498 24.963,47.464 23.769,47.464 ZM23.769,33.80 C22.576,33.80 21.609,32.113 21.609,30.923 C21.609,29.730 22.576,28.765 23.769,28.765 C24.963,28.765 25.931,29.730 25.931,30.923 C25.931,32.113 24.963,33.80 23.769,33.80 ZM16.566,69.39 C15.373,69.39 14.406,68.74 14.406,66.882 C14.406,65.690 15.373,64.724 16.566,64.724 C17.759,64.724 18.728,65.690 18.728,66.882 C18.728,68.74 17.759,69.39 16.566,69.39 ZM16.566,54.656 C15.373,54.656 14.406,53.690 14.406,52.498 C14.406,51.306 15.373,50.341 16.566,50.341 C17.759,50.341 18.728,51.306 18.728,52.498 C18.728,53.690 17.759,54.656 16.566,54.656 ZM16.566,40.271 C15.373,40.271 14.406,39.306 14.406,38.115 C14.406,36.923 15.373,35.957 16.566,35.957 C17.759,35.957 18.728,36.923 18.728,38.115 C18.728,39.306 17.759,40.271 16.566,40.271 ZM9.363,61.847 C8.169,61.847 7.201,60.881 7.201,59.690 C7.201,58.498 8.169,57.532 9.363,57.532 C10.557,57.532 11.524,58.498 11.524,59.690 C11.524,60.881 10.557,61.847 9.363,61.847 ZM9.363,47.464 C8.169,47.464 7.201,46.498 7.201,45.305 C7.201,44.115 8.169,43.148 9.363,43.148 C10.557,43.148 11.524,44.115 11.524,45.305 C11.524,46.498 10.557,47.464 9.363,47.464 ZM2.160,54.656 C0.966,54.656 0.1,53.690 0.1,52.498 C0.1,51.306 0.966,50.341 2.160,50.341 C3.353,50.341 4.322,51.306 4.322,52.498 C4.322,53.690 3.353,54.656 2.160,54.656 ZM59.787,93.492 C60.979,93.492 61.948,94.458 61.948,95.649 C61.948,96.840 60.979,97.806 59.787,97.806 C58.592,97.806 57.625,96.840 57.625,95.649 C57.625,94.458 58.592,93.492 59.787,93.492 Z"/>
</svg>